<svg width="1792" height="1409" viewBox="0 0 1792 1409" fill="none" xmlns="http://www.w3.org/2000/svg">
<path d="M1408 512C1408 604.667 1376.67 690.333 1314 769C1251.33 847.667 1165.83 909.833 1057.5 955.5C949.167 1001.17 831.333 1024 704 1024C646.667 1024 588 1018.67 528 1008C445.333 1066.67 352.667 1109.33 250 1136C226 1142 197.333 1147.33 164 1152H161C153.667 1152 146.833 1149.33 140.5 1144C134.167 1138.67 130.333 1131.67 129 1123C128.333 1121 128 1118.83 128 1116.5C128 1114.17 128.167 1112 128.5 1110C128.833 1108 129.5 1106 130.5 1104L133 1099L136.5 1093.5L140.5 1088.5L145 1083.5L149 1079C152.333 1075 160 1066.67 172 1054C184 1041.33 192.667 1031.5 198 1024.5C203.333 1017.5 210.833 1007.83 220.5 995.5C230.167 983.167 238.5 970.333 245.5 957C252.5 943.667 259.333 929 266 913C183.333 865 118.333 806 71 736C23.6667 666 0 591.333 0 512C0 419.333 31.3333 333.667 94 255C156.667 176.333 242.167 114.167 350.5 68.5C458.833 22.8333 576.667 0 704 0C831.333 0 949.167 22.8333 1057.5 68.5C1165.83 114.167 1251.33 176.333 1314 255C1376.67 333.667 1408 419.333 1408 512ZM1792 768C1792 848 1768.33 922.833 1721 992.5C1673.67 1062.17 1608.67 1121 1526 1169C1532.67 1185 1539.5 1199.67 1546.5 1213C1553.5 1226.33 1561.83 1239.17 1571.5 1251.5C1581.17 1263.83 1588.67 1273.5 1594 1280.5C1599.33 1287.5 1608 1297.33 1620 1310C1632 1322.67 1639.67 1331 1643 1335C1643.67 1335.67 1645 1337.17 1647 1339.5C1649 1341.83 1650.5 1343.5 1651.5 1344.5C1652.5 1345.5 1653.83 1347.17 1655.5 1349.5C1657.17 1351.83 1658.33 1353.67 1659 1355L1661.5 1360L1663.5 1366L1664 1372.5L1663 1379C1661 1388.33 1656.67 1395.67 1650 1401C1643.33 1406.33 1636 1408.67 1628 1408C1594.67 1403.33 1566 1398 1542 1392C1439.33 1365.33 1346.67 1322.67 1264 1264C1204 1274.67 1145.33 1280 1088 1280C907.333 1280 750 1236 616 1148C654.667 1150.67 684 1152 704 1152C811.333 1152 914.333 1137 1013 1107C1111.67 1077 1199.67 1034 1277 978C1360.33 916.667 1424.33 846 1469 766C1513.67 686 1536 601.333 1536 512C1536 460.667 1528.33 410 1513 360C1599 407.333 1667 466.667 1717 538C1767 609.333 1792 686 1792 768Z" fill="white"/>
</svg>
