<svg width="24" height="10" viewBox="0 0 24 10" fill="none" xmlns="http://www.w3.org/2000/svg">
<path d="M8.07955 3H7.02273C6.96023 2.69602 6.85085 2.42898 6.6946 2.19886C6.54119 1.96875 6.35369 1.77557 6.1321 1.61932C5.91335 1.46023 5.67045 1.34091 5.40341 1.26136C5.13636 1.18182 4.85795 1.14205 4.56818 1.14205C4.03977 1.14205 3.56108 1.27557 3.1321 1.54261C2.70597 1.80966 2.36648 2.20312 2.11364 2.72301C1.86364 3.2429 1.73864 3.88068 1.73864 4.63636C1.73864 5.39205 1.86364 6.02983 2.11364 6.54972C2.36648 7.0696 2.70597 7.46307 3.1321 7.73011C3.56108 7.99716 4.03977 8.13068 4.56818 8.13068C4.85795 8.13068 5.13636 8.09091 5.40341 8.01136C5.67045 7.93182 5.91335 7.81392 6.1321 7.65767C6.35369 7.49858 6.54119 7.30398 6.6946 7.07386C6.85085 6.84091 6.96023 6.57386 7.02273 6.27273H8.07955C8 6.71875 7.85511 7.1179 7.64489 7.47017C7.43466 7.82244 7.1733 8.12216 6.8608 8.36932C6.5483 8.61364 6.19744 8.79972 5.80824 8.92756C5.42188 9.0554 5.00852 9.11932 4.56818 9.11932C3.82386 9.11932 3.16193 8.9375 2.58239 8.57386C2.00284 8.21023 1.54688 7.69318 1.21449 7.02273C0.882102 6.35227 0.715909 5.55682 0.715909 4.63636C0.715909 3.71591 0.882102 2.92045 1.21449 2.25C1.54688 1.57955 2.00284 1.0625 2.58239 0.698864C3.16193 0.335227 3.82386 0.153409 4.56818 0.153409C5.00852 0.153409 5.42188 0.217329 5.80824 0.34517C6.19744 0.473011 6.5483 0.660511 6.8608 0.90767C7.1733 1.15199 7.43466 1.45028 7.64489 1.80256C7.85511 2.15199 8 2.55114 8.07955 3ZM22.06 2.45455C22.0089 2.02273 21.8015 1.6875 21.4379 1.44886C21.0742 1.21023 20.6282 1.09091 20.0998 1.09091C19.7134 1.09091 19.3754 1.15341 19.0856 1.27841C18.7987 1.40341 18.5742 1.57528 18.4123 1.79403C18.2532 2.01278 18.1737 2.26136 18.1737 2.53977C18.1737 2.77273 18.229 2.97301 18.3398 3.14062C18.4535 3.3054 18.5984 3.44318 18.7745 3.55398C18.9506 3.66193 19.1353 3.75142 19.3285 3.82244C19.5217 3.89062 19.6992 3.94602 19.8612 3.98864L20.7475 4.22727C20.9748 4.28693 21.2276 4.36932 21.506 4.47443C21.7873 4.57955 22.0558 4.72301 22.3114 4.90483C22.57 5.08381 22.783 5.31392 22.9506 5.59517C23.1183 5.87642 23.2021 6.22159 23.2021 6.63068C23.2021 7.10227 23.0785 7.52841 22.8313 7.90909C22.587 8.28977 22.229 8.59233 21.7575 8.81676C21.2887 9.04119 20.7191 9.15341 20.0487 9.15341C19.4237 9.15341 18.8825 9.05256 18.4251 8.85085C17.9705 8.64915 17.6126 8.3679 17.3512 8.0071C17.0927 7.64631 16.9464 7.22727 16.9123 6.75H18.0032C18.0316 7.07955 18.1424 7.35227 18.3356 7.56818C18.5316 7.78125 18.7788 7.94034 19.0771 8.04545C19.3782 8.14773 19.7021 8.19886 20.0487 8.19886C20.4521 8.19886 20.8143 8.13352 21.1353 8.00284C21.4563 7.86932 21.7106 7.68466 21.8981 7.44886C22.0856 7.21023 22.1793 6.93182 22.1793 6.61364C22.1793 6.32386 22.0984 6.08807 21.9364 5.90625C21.7745 5.72443 21.5614 5.5767 21.2972 5.46307C21.033 5.34943 20.7475 5.25 20.4407 5.16477L19.3668 4.85795C18.685 4.66193 18.1452 4.3821 17.7475 4.01847C17.3498 3.65483 17.1509 3.17898 17.1509 2.59091C17.1509 2.10227 17.283 1.67614 17.5472 1.3125C17.8143 0.946023 18.1722 0.661932 18.6211 0.460227C19.0728 0.255682 19.5771 0.153409 20.1339 0.153409C20.6964 0.153409 21.1964 0.254261 21.6339 0.455966C22.0714 0.654829 22.418 0.927556 22.6737 1.27415C22.9322 1.62074 23.0685 2.0142 23.0827 2.45455H22.06Z" fill="white"/>
<path d="M9.49751 9V8.23295L14.2021 1.21023H9.44638V0.272727H15.4634V1.03977L10.7589 8.0625H15.5146V9H9.49751Z" fill="#FF0000"/>
</svg>
