<svg width="800" height="825" viewBox="0 0 800 825" fill="none" xmlns="http://www.w3.org/2000/svg">
<path d="M773.9 433.801C790.7 411.601 800 384.401 800 356.101C800 311.201 774.9 268.701 734.5 245.001C724.099 238.9 712.258 235.69 700.2 235.701H460.4L466.4 112.801C467.8 83.1007 457.3 54.9007 436.9 33.4007C426.889 22.8035 414.81 14.372 401.412 8.62726C388.013 2.88249 373.578 -0.0535013 359 0.000738016C307 0.000738016 261 35.0007 247.2 85.1007L161.3 396.101H161V824.101H633.3C642.5 824.101 651.5 822.301 659.8 818.701C707.4 798.401 738.1 751.901 738.1 700.301C738.1 687.701 736.3 675.301 732.7 663.301C749.5 641.101 758.8 613.901 758.8 585.601C758.8 573.001 757 560.601 753.4 548.601C770.2 526.401 779.5 499.201 779.5 470.901C779.3 458.301 777.5 445.801 773.9 433.801V433.801ZM0 428.101V792.101C0 809.801 14.3 824.101 32 824.101H97V396.101H32C14.3 396.101 0 410.401 0 428.101Z" fill="white"/>
</svg>
